<?xml version="1.0" encoding="utf-8"?>
<!-- Generator: Adobe Illustrator 16.0.0, SVG Export Plug-In . SVG Version: 6.00 Build 0)  -->
<!DOCTYPE svg PUBLIC "-//W3C//DTD SVG 1.1//EN" "http://www.w3.org/Graphics/SVG/1.1/DTD/svg11.dtd">
<svg version="1.1" id="katman_1" xmlns="http://www.w3.org/2000/svg" xmlns:xlink="http://www.w3.org/1999/xlink" x="0px" y="0px"
	 width="600px" height="600px" viewBox="0 0 600 600" enable-background="new 0 0 600 600" xml:space="preserve">
<path opacity="0.3" fill="#508CFF" d="M297.029,99.396c0,0-180.03-84.18-191.698,17.503C93.663,218.581-2.187,195.66,1.564,290.259
	c3.751,94.598,61.678,80.424,99.6,89.175c37.923,8.752,33.859,79.498,52.925,99.814c19.065,20.314,54.801,13.334,74.804,27.711
	c20.003,14.378,29.485,57.303,68.136,61.99c38.651,4.688,87.409-47.819,96.786-100.954c9.376-53.133,60.635-40.943,73.763-59.071
	c13.126-18.128-3.023-50.321,7.813-67.823c10.838-17.503,73.138-25.005,95.641-51.884c22.504-26.879,52.719-126.479-10.209-174.402
	c-62.927-47.924-102.519-42.924-141.69-2.917c0,0-24.69,21.044-49.694,17.763C344.432,126.379,297.029,99.396,297.029,99.396z"/>
</svg>
