<?xml version="1.0" encoding="utf-8"?>
<!-- Generator: Adobe Illustrator 16.0.0, SVG Export Plug-In . SVG Version: 6.00 Build 0)  -->
<!DOCTYPE svg PUBLIC "-//W3C//DTD SVG 1.1//EN" "http://www.w3.org/Graphics/SVG/1.1/DTD/svg11.dtd">
<svg version="1.1" id="katman_1" xmlns="http://www.w3.org/2000/svg" xmlns:xlink="http://www.w3.org/1999/xlink" x="0px" y="0px"
	 width="600px" height="600px" viewBox="0 0 600 600" enable-background="new 0 0 600 600" xml:space="preserve">
<g>
	<g>
		<g>
			<g>
				
					<line fill="none" stroke="#E9F2F4" stroke-width="0.25" stroke-miterlimit="10" x1="37.309" y1="74.379" x2="37.309" y2="103.433"/>
				<g>
					<circle fill="#667EEA" cx="37.309" cy="72.354" r="14.575"/>
				</g>
				
					<line fill="none" stroke="#E9F2F4" stroke-width="0.25" stroke-miterlimit="10" x1="37.309" y1="26.691" x2="37.309" y2="54.897"/>
				<g>
					<circle fill="#667EEA" cx="37.309" cy="22.238" r="14.575"/>
					<g>
						<polygon fill="#FFFFFF" points="36.155,29.126 29.414,20.447 35.523,23 49.572,10.714 						"/>
					</g>
				</g>
				<g>
					<circle fill="#667EEA" cx="37.309" cy="123.446" r="14.575"/>
				</g>
				<g>
					<polygon fill="#FFFFFF" points="36.155,78.091 29.414,69.412 35.523,71.967 49.572,59.681 					"/>
				</g>
				<g>
					<polygon fill="#FFFFFF" points="36.155,129.752 29.414,121.073 35.523,123.627 49.572,111.34 					"/>
				</g>
			</g>
			<rect x="60.498" y="12.257" fill="#667EEA" width="59.57" height="8.042"/>
			<rect x="60.498" y="23.698" fill="#E9F2F4" width="104.254" height="22.435"/>
			<rect x="60.498" y="73.599" fill="#E9F2F4" width="104.254" height="22.433"/>
			<rect x="60.498" y="124.13" fill="#E9F2F4" width="104.254" height="22.435"/>
			<rect x="60.498" y="62.7" fill="#667EEA" width="59.57" height="8.042"/>
			<rect x="60.498" y="112.755" fill="#667EEA" width="59.57" height="8.043"/>
		</g>
		<g>
			<line fill="none" stroke="#E9F2F4" stroke-miterlimit="10" x1="333.701" y1="6.599" x2="452.57" y2="6.599"/>
			<line fill="none" stroke="#E9F2F4" stroke-miterlimit="10" x1="333.701" y1="14.763" x2="452.57" y2="14.763"/>
			<line fill="none" stroke="#E9F2F4" stroke-miterlimit="10" x1="333.701" y1="22.927" x2="452.57" y2="22.927"/>
			<line fill="none" stroke="#E9F2F4" stroke-miterlimit="10" x1="333.701" y1="31.091" x2="452.57" y2="31.091"/>
			<line fill="none" stroke="#E9F2F4" stroke-miterlimit="10" x1="333.701" y1="39.255" x2="452.57" y2="39.255"/>
			<line fill="none" stroke="#E9F2F4" stroke-miterlimit="10" x1="333.701" y1="47.419" x2="452.57" y2="47.419"/>
			<line fill="none" stroke="#E9F2F4" stroke-miterlimit="10" x1="333.701" y1="58.142" x2="452.57" y2="58.142"/>
			<line fill="none" stroke="#E9F2F4" stroke-miterlimit="10" x1="333.701" y1="66.125" x2="452.57" y2="66.125"/>
			<line fill="none" stroke="#E9F2F4" stroke-miterlimit="10" x1="333.701" y1="74.107" x2="452.57" y2="74.107"/>
			<line fill="none" stroke="#E9F2F4" stroke-miterlimit="10" x1="333.701" y1="82.089" x2="452.57" y2="82.089"/>
		</g>
		<g>
			<g>
				<g>
					<g>
						<defs>
							<circle id="SVGID_1_" cx="553.772" cy="156.517" r="37.836"/>
						</defs>
						<clipPath id="SVGID_2_">
							<use xlink:href="#SVGID_1_"  overflow="visible"/>
						</clipPath>
						<circle clip-path="url(#SVGID_2_)" fill="#667EEA" cx="553.772" cy="156.517" r="37.836"/>
					</g>
					<g>
						<defs>
							<circle id="SVGID_3_" cx="553.772" cy="156.517" r="37.836"/>
						</defs>
						<clipPath id="SVGID_4_">
							<use xlink:href="#SVGID_3_"  overflow="visible"/>
						</clipPath>
						<polygon clip-path="url(#SVGID_4_)" fill="#E9F2F4" points="566.461,116.881 553.771,156.517 517.335,121.512 
							568.942,109.909 						"/>
					</g>
					<g>
						<defs>
							<circle id="SVGID_5_" cx="553.772" cy="156.517" r="37.836"/>
						</defs>
						<clipPath id="SVGID_6_">
							<use xlink:href="#SVGID_5_"  overflow="visible"/>
						</clipPath>
						<polygon clip-path="url(#SVGID_6_)" fill="#E9F2F4" points="566.461,116.881 553.771,156.517 603.019,160.801 
							585.576,121.315 						"/>
					</g>
					<g>
						<defs>
							<circle id="SVGID_7_" cx="553.772" cy="156.517" r="37.836"/>
						</defs>
						<clipPath id="SVGID_8_">
							<use xlink:href="#SVGID_7_"  overflow="visible"/>
						</clipPath>
						<polygon clip-path="url(#SVGID_8_)" fill="#52E6C6" points="553.771,194.353 553.771,156.517 596.114,156.517 
							600.303,174.923 562.685,199.554 						"/>
					</g>
				</g>
				<circle fill="#FFFFFF" cx="553.771" cy="156.517" r="21.451"/>
			</g>
			<line fill="none" stroke="#E9F2F4" stroke-miterlimit="10" x1="529.029" y1="206.058" x2="581.935" y2="206.058"/>
			<line fill="none" stroke="#E9F2F4" stroke-miterlimit="10" x1="529.029" y1="217.652" x2="581.935" y2="217.652"/>
			<line fill="none" stroke="#E9F2F4" stroke-miterlimit="10" x1="529.029" y1="229.246" x2="581.935" y2="229.246"/>
		</g>
	</g>
</g>
</svg>
