<?xml version="1.0" encoding="utf-8"?>
<!-- Generator: Adobe Illustrator 16.0.0, SVG Export Plug-In . SVG Version: 6.00 Build 0)  -->
<!DOCTYPE svg PUBLIC "-//W3C//DTD SVG 1.1//EN" "http://www.w3.org/Graphics/SVG/1.1/DTD/svg11.dtd">
<svg version="1.1" id="katman_1" xmlns="http://www.w3.org/2000/svg" xmlns:xlink="http://www.w3.org/1999/xlink" x="0px" y="0px"
	 width="600px" height="600px" viewBox="0 0 600 600" enable-background="new 0 0 600 600" xml:space="preserve">
<g>
	<g>
		<g>
			<g>
				<polygon fill="#C7C7C7" points="71.529,584.225 76.237,584.225 114.622,397.098 104.899,397.098 				"/>
				<polygon fill="#C7C7C7" points="433.741,584.225 429.035,584.225 390.647,397.098 400.37,397.098 				"/>
			</g>
			<g>
				<path fill="#482C3B" d="M65.325,284.456c-1.561,1.673-2.514,3.842-3.042,6.069c0.74-1.629,1.634-3.294,3.145-4.252
					c1.934-1.228,4.502-1.059,6.449-2.265c1.821-1.129,2.755-3.229,3.584-5.203c-1.589,1.185-3.054,2.378-4.981,2.886
					C68.48,282.218,66.773,282.901,65.325,284.456z"/>
				<g>
					<g>
						<g>
							<rect x="81.813" y="494.005" fill="#A6AEBA" width="7.147" height="69.26"/>
							<rect x="79.643" y="483.922" fill="#D2DCEB" width="11.489" height="10.083"/>
							<rect x="81.048" y="536.608" fill="#D2DCEB" width="8.677" height="21.615"/>
							<rect x="79.643" y="558.224" fill="#D2DCEB" width="11.489" height="10.082"/>
							<rect x="71.461" y="464.831" fill="#A6AEBA" width="27.854" height="19.091"/>
							<path fill="#A6AEBA" d="M49.411,473.42h74.736c0.82,0,1.483-0.664,1.483-1.483v-11.329c0-0.817-0.664-1.48-1.483-1.48H49.411
								c-0.82,0-1.483,0.663-1.483,1.48v11.329C47.928,472.756,48.591,473.42,49.411,473.42z"/>
							<polygon fill="#A6AEBA" points="57.706,577.938 79.643,567.063 79.643,559.479 54.827,576.112 							"/>
							<circle fill="#A6AEBA" cx="54.827" cy="580.07" r="5.14"/>
							<circle fill="#A6AEBA" cx="85.387" cy="580.07" r="5.14"/>
							<polygon fill="#A6AEBA" points="113.067,577.938 91.131,567.063 91.131,559.479 115.948,576.112 							"/>
							<circle fill="#A6AEBA" cx="115.947" cy="580.07" r="5.14"/>
							<rect x="83.996" y="563.265" fill="#A6AEBA" width="2.783" height="16.74"/>
						</g>
					</g>
					<path fill="#FF8A95" d="M35.008,466.954c-2.571,0.083-4.859-1.636-5.465-4.135c-1.878-7.74-5.289-22.191-5.365-58.304
						c-0.085-39.847-8.366-70.147-11.218-82.92c-0.792-3.542,0.807-7.175,3.953-8.984l0,0c1.701-0.979,3.629-1.494,5.591-1.494
						h69.241c0,0,28.463,50.914,32.198,68.361c3.731,17.449,8.947,84.418,8.947,84.418L35.008,466.954z"/>
					<path fill="#F74455" d="M37.266,467.088c0,0-6.468-12.679-6.575-62.572c-0.088-41.085-8.25-74.929-10.606-87.993
						c-0.51-2.824,1.66-5.405,4.53-5.405h73.642c0,0,28.466,50.914,32.198,68.361c3.732,17.449,8.95,84.418,8.95,84.418
						L37.266,467.088z"/>
					<path fill="#FF8A95" d="M34.34,467.088h70.096v-15.177H30.752v11.591C30.752,465.482,32.359,467.088,34.34,467.088z"/>
					<path fill="#F74455" d="M47.928,467.088h103.589c2.479,0,4.492-2.01,4.492-4.491v-6.193c0-2.481-2.013-4.492-4.492-4.492H52.42
						c-2.481,0-4.492,2.011-4.492,4.492V467.088z"/>
				</g>
				<path fill="#FEC4AD" d="M58.351,293.58c0,0,10.71-3.391,11.788-8.053c0.875-3.786,2.274-15.545,2.274-15.545h18.68
					c0,0-0.715,10.506,0,13.909c1.777,8.46,12.39,11.247,12.39,11.247l1.516,26.428l-27.535,23.084l-26.566-26.692L58.351,293.58z"
					/>
				<path id="XMLID_98_" fill="#FEC4AD" d="M101.065,241.171c4.709,6.282,3.75,7.171,3.103,15.828
					c-0.554,7.441-2.455,14.59-3.713,17.82c-1.27,3.261-7.913,17.288-19.752,12.168c-6.554-2.833-13.991-9.814-16.135-14.614
					c-1.573-3.521-2.404-9.867-2.526-15.728c-0.121-5.757-0.149-13.224,0.057-17.518C62.826,223.962,92.449,229.676,101.065,241.171
					z"/>
				<g>
					<path fill="#133A50" d="M131.896,419.328c10.2-2.21,15.881,1.07,21.99,8.401c6.11,7.332,3.665,25.047,0,39.709
						c-3.667,14.663-17.718,112.344-17.718,112.344h-10.384c0,0-2.667-38.489-4.501-66.591c-1.833-28.103,4.442-68.355,4.442-68.355
						l-39.653-25.508C86.072,419.328,122.737,421.314,131.896,419.328z"/>
					<path fill="#133A50" d="M131.408,405.175c7.788,7.271,30.71,19.529,26.134,34.683l-30.704,13.013
						c0,0-31.2-11.312-40.767-33.542c-9.568-22.23-9.568-22.23-9.568-22.23l20.559-8.18L131.408,405.175z"/>
					<path fill="#133A50" d="M108.984,424.712c5.646,4.077,20.909,10.794,17.854,28.158c-1.559,8.853-26.521,62.338-40.155,84.814
						c-6.95,11.456-19.328,35.436-19.328,35.436l-11.606,2.773c0,0,8.94-29.101,15.05-55.982
						c6.109-26.879,23.895-58.97,23.895-58.97s-13.135-8.867-22.911-13.142c-9.774-4.278-15.035-6.019-0.373-20.07
						C86.072,413.679,97.986,416.77,108.984,424.712z"/>
					<path fill="#FEC4AD" d="M131.408,342.004c1.601,6.733,3.589,13.3,6.029,17.56c2.439,4.257,52.796,22.814,52.796,22.814h-29.411
						c0,0-28-3.676-35.989-14.405c-7.986-10.73-15.397-25.969-15.397-25.969H131.408z"/>
					<path fill="#133A50" d="M113.372,298.813c5.209,2.315,10.021,15.474,13.865,26.688c3.847,11.212,4.171,16.502,4.171,16.502
						s-13.458,7.694-20.595,5.771c0,0-6.782-24.357-2.11-36.658C113.372,298.813,113.372,298.813,113.372,298.813z"/>
					<path fill="#133A50" d="M87.408,406.055c14.672-0.589,29.335-0.942,44-0.88c-7.127-4.622-13.418-7.842-14.789-9.214
						c-3.054-3.054-2.018-30.264,0.228-38.719c2.244-8.454,2.107-18.247,0.482-22.608c-1.622-4.361-3.957-35.82-3.957-35.82
						l-9.89-3.676c0,0,3.033,22.819-20.95,22.819c-24.078,0-24.182-24.377-24.182-24.377l-15.348,3.399
						c0,0-1.133,29.717-0.563,43.202c0.57,13.482,6.976,36.844,8.808,49.061c1.427,9.51-1.213,15.324-3.032,22.328
						C60.427,406.767,73.839,405.586,87.408,406.055z"/>
					<path fill="#FF5E69" d="M68.075,571.146c-3.297-0.659-4.464,0.658-7.43,2.637c-2.968,1.979-6.265,1.979-6.265,1.979v8.902
						h22.927L68.075,571.146z"/>
					<path fill="#FF5E69" d="M138.165,572.795c0,0-0.334,3.088-5.279,4.479c-4.944,1.393-8.31-2.693-8.31-2.693l-1.095,10.083
						l39.076,0.238L138.165,572.795z"/>
				</g>
				<path fill="#FEC4AD" d="M138.854,380.052c-4.391-0.522-8.605-4.627-25.605-4.83c-3.054-0.037-23.248-3.975-28.711-5.587
					c-10.729-3.161-16.206-6.992-16.206-6.992s-6.231-23.23-8.61-37.966c-6.91-0.758-13.804-1.644-20.652-2.803
					c-0.245,18.4,12.79,51.115,17.13,54.379c8.448,6.354,28.297,6.039,33.065,6.125c11.042,0.201,58.095,1.47,58.095,1.47
					S150.988,381.494,138.854,380.052z"/>
				<path fill="#133A50" d="M65.269,347.947c0,0-6.261-36.766-8.074-40.632c-9.377-19.994-22.259-9.34-20.369,6.131
					c0.806,6.588,1.318,23.61,4.649,39.687C48.964,353.545,60.07,350.938,65.269,347.947z"/>
				<g>
					<polygon fill="#A6AEBA" points="128.833,383.848 147.364,383.848 165.89,319.019 151.803,319.019 					"/>
					<polygon fill="#D2DCEB" points="134.152,383.848 206.468,383.848 224.996,319.019 152.68,319.019 					"/>
					<rect x="123.513" y="382.378" fill="#D2DCEB" width="82.955" height="4.835"/>
					<rect x="82.036" y="382.378" fill="#A6AEBA" width="41.477" height="4.835"/>
					<path fill="#A6AEBA" d="M173.868,354.586c-2.09,4.961-0.618,10.323,3.291,11.974c3.911,1.646,8.778-1.04,10.871-6.003
						c2.091-4.961,0.619-10.323-3.29-11.973C180.829,346.936,175.961,349.622,173.868,354.586z"/>
				</g>
				<path fill="#133A50" d="M48.217,411.569c-2.729,13.147,3.73,41.871,46.477,49.372l24.383,9.879c0,0,9.706-10.914,6.648-25.984
					c-3.054-15.07-20.172-20.81-31.451-39.039c0,0-17.718-7.41-29.104-3.442C53.782,406.322,48.217,411.569,48.217,411.569z"/>
				<path fill="#482C3B" d="M104.714,250.139c0,0-5.143,0.201-11.462-9.322c0,0,0.682,4.313-5.465,10.121
					c-6.146,5.807-11.661,4.237-12.585,7.04c-0.926,2.805-1.012,5.326-1.012,5.326s-1.03-0.013-2.028-1.518
					c-0.658-0.993-0.993-3.408-2.109-4.147c-2.807-1.859-7.63,0.633-6.084,6.096c0.964,3.41,4.649,5.693,4.649,5.693
					c-0.071,9.326,3.736,12.193,3.736,12.193s-6.317,2.865-9.53,1.552c-4.619-1.889-5.792-4.785-5.623-10.007
					c0,0-3.48-0.536-6.179-3.213c-6.438-6.39,0.988-24.592,3.97-26.842c0,0-7.041-9.971,1.807-16.668
					c8.975-6.794,12.444,4.189,12.444,4.189c2.978-2.249,15.202-3.007,21.426-0.686
					C108.205,236.483,104.714,250.139,104.714,250.139z"/>
				<path fill="none" stroke="#482C3B" stroke-width="0.25" stroke-miterlimit="10" d="M92.844,240.715
					c0.55,3.561,0.026,11.833-9.513,18.308"/>
			</g>
			<g>
				<g>
					<g>
						<rect x="483.569" y="494.005" fill="#A6AEBA" width="7.147" height="69.26"/>
						<rect x="481.398" y="483.922" fill="#D2DCEB" width="11.489" height="10.083"/>
						<rect x="482.804" y="536.608" fill="#D2DCEB" width="8.676" height="21.615"/>
						<rect x="481.398" y="558.224" fill="#D2DCEB" width="11.489" height="10.082"/>
						<rect x="473.216" y="464.831" fill="#A6AEBA" width="27.854" height="19.091"/>
						<path fill="#A6AEBA" d="M523.118,473.42h-74.735c-0.818,0-1.482-0.664-1.482-1.483v-11.329c0-0.817,0.664-1.48,1.482-1.48
							h74.735c0.819,0,1.483,0.663,1.483,1.48v11.329C524.602,472.756,523.938,473.42,523.118,473.42z"/>
						<polygon fill="#A6AEBA" points="514.825,577.938 492.888,567.063 492.888,559.479 517.702,576.112 						"/>
						<circle fill="#A6AEBA" cx="517.702" cy="580.07" r="5.141"/>
						<circle fill="#A6AEBA" cx="487.143" cy="580.07" r="5.14"/>
						<polygon fill="#A6AEBA" points="459.461,577.938 481.398,567.063 481.398,559.479 456.584,576.112 						"/>
						<path fill="#A6AEBA" d="M451.443,580.07c0,2.837,2.3,5.14,5.141,5.14c2.837,0,5.136-2.303,5.136-5.14
							c0-2.839-2.299-5.141-5.136-5.141C453.743,574.93,451.443,577.231,451.443,580.07z"/>
						<rect x="485.751" y="563.265" fill="#A6AEBA" width="2.784" height="16.74"/>
					</g>
				</g>
				<path fill="#FF8A95" d="M537.521,466.954c2.573,0.083,4.858-1.636,5.467-4.135c1.877-7.74,5.287-22.191,5.365-58.304
					c0.086-39.847,20.97-70.147,23.823-82.92c0.793-3.542-0.806-7.175-3.951-8.984l0,0c-1.702-0.979-3.63-1.494-5.593-1.494h-81.849
					c0,0-28.463,50.914-32.195,68.361c-3.731,17.449-8.949,84.418-8.949,84.418L537.521,466.954z"/>
				<path fill="#F74455" d="M535.263,467.088c0,0,6.47-12.679,6.574-62.572c0.088-41.085,20.858-74.929,23.214-87.993
					c0.508-2.824-1.66-5.405-4.529-5.405h-86.25c0,0-28.464,50.914-32.196,68.361c-3.734,17.449-8.95,84.418-8.95,84.418
					L535.263,467.088z"/>
				<g>
					<path fill="#FF8A95" d="M538.191,467.088h-92.77v-15.177h96.356v11.591C541.778,465.482,540.172,467.088,538.191,467.088z"/>
					<path fill="#F74455" d="M457.461,467.088h-36.446c-2.482,0-4.493-2.01-4.493-4.491v-6.193c0-2.481,2.011-4.492,4.493-4.492
						h31.954c2.481,0,4.492,2.011,4.492,4.492V467.088z"/>
				</g>
			</g>
			<g>
				<path fill="#FEC4AD" d="M462.497,296.139c-6.671,6.64-7.124,40.004-13.87,57.322c0,0-45.985,17.981-66.948,23.26l7.276,7.668
					c0,0,62.309-14.977,70.212-20.234c12.079-8.036,19.101-40.549,20.252-56.812C480.57,291.079,469.466,289.199,462.497,296.139z"
					/>
				<path fill="#FEC4AD" d="M386.792,377.923l-5.113-1.202c0,0-10.516-0.96-13.881-1.442c-3.367-0.48-7.395,3.368-11.994,4.811
					c-4.596,1.44-9.054,4.3-9.054,4.3h3.673l7.493,1.229l6.755-1.229c0,0,8.05-0.747,12.682,0c4.632,0.75,11.603,0,11.603,0
					L386.792,377.923z"/>
			</g>
			<g>
				<path fill="#FEC4AD" d="M432.304,411.551c-14.271,4.728-31.77,12.31-36.894,17.078c-5.127,4.77-15.223,11.537-7.081,37.736
					c5.204,16.737,27.886,101.537,27.886,101.537l11.492-2.046c0,0-4.082-49.134-8.173-85.891
					c-1.981-17.819-2.656-22.789-2.656-22.789l15.426-6.28c19.555-8.037,12.854-41.621,12.854-41.621L432.304,411.551z"/>
				<path fill="#FEC4AD" d="M400.357,423.51c-5.123,4.769-8.746,3.172-16.439,29.507c-4.916,16.826-22.843,101.687-22.843,101.687
					l10.712,4.647c14.479-40.564,14.462-40.523,31.379-73.445c8.194-15.947,11.637-31.699,11.637-31.699l31.278-1.877
					c19.554-8.036,12.853-36.578,12.853-36.578S405.484,418.741,400.357,423.51z"/>
				<path fill="#508CFF" d="M518.843,398.28c0,13.702,9.92,28.841-1.576,44.422c-10.396,14.093-71.186,9.627-71.186,9.627
					s8.575-14.85,0.433-26.091c-5.204-7.189-17.2-13.839-17.2-13.839l34.006-10.984l27.301-21.206L518.843,398.28z"/>
				<path fill="#B56537" d="M484.73,293.114c-1.839,6.248-14.882,6.128-24.509-5.545c-9.63-11.67-16.606-31.561-6.998-45.614
					c9.607-14.054,22.461,13.165,26.838,27.639C484.438,284.069,484.73,293.114,484.73,293.114z"/>
				<path fill="#FEC4AD" d="M454.383,241.76c-2.582,3.067-0.11,14.75,0.342,16.486c0.876,3.354-0.827,7.976,0.146,8.753
					c0.974,0.778,1.459,0.146,3.113,0.536c0.176,0.04,4.701,8.917,5.501,10.757c1.219,2.799,7.783-2.161,9.77-0.059
					c1.44,1.523,1.501,4.345,1.988,7.847l-3.836,15.494l31.317-6.029c0,0-9.142-13.616-11.477-19.84
					c-2.335-6.225,0.584-13.033-0.195-21.397c-0.779-8.364-4.511-19.115-16.34-20.229
					C464.403,233.104,457.496,238.064,454.383,241.76z"/>
				<path fill="#E4DDD7" d="M464.288,399.627c0,0,7.954-1.743,20.98,0c13.029,1.745,32.335-1.907,32.335-1.907
					s-7.911-40.797-7.426-59.298c0.486-18.502,1.948-38.466,1.948-38.466l-34.693-5.841c0,0-8.397,3.004-13.145,16.553
					C459.541,324.217,460.27,382.667,464.288,399.627z"/>
				<path fill="#133A50" d="M475.242,286.079c-2.557,2.557-10.954,5.843-10.954,9.495s-6.572,35.057-6.208,41.629
					c0.364,6.576,2.778,31.548,1.316,39.218c-1.458,7.668-1.458,24.667-1.458,24.667l6.35-1.461c0,0-1.826-43.435,0-59.499
					c1.826-16.069,13.145-45.649,13.145-45.649l-4.26-1.462L475.242,286.079z"/>
				<path fill="#133A50" d="M487.865,294.479l-10.433-0.364c0,0-3.51,16.066-3.51,47.005c0,26.046,5.336,61.157,5.336,61.157
					s8.082,3.125,19.039,3.491c10.955,0.364,19.306-3.652,19.306-3.652s-1.825-25.474,0-50.304
					c1.826-24.833,8.465-30.479,7.183-46.742c-2.129-26.977-26.539-17.53-26.539-17.53L487.865,294.479z"/>
				<path fill="#508CFF" d="M477.433,294.115c0,0,16.799-8.036,19.356-13.148c0,0,1.825,4.382,1.458,6.573
					c-0.363,2.191-16.432,17.53-16.432,17.53L477.433,294.115z"/>
				<path fill="#B56537" d="M491.349,296.031c4.12-20.734-6.907-26.83-18.968-34.222s-19.157-19.855-19.157-19.855
					s4.669-15.173,18.284-18.285c13.616-3.112,31.01,5.379,35.403,26.844c3.115,15.218,7.188,20.582,17.505,28.011
					c12.449,8.962,16.174,31.8,1.652,42.81c-13.431,10.181-5.668-14.002-10.649-27.575c-0.844-2.297-11.29,9.379-17.121,11.312
					C492.176,307.096,490.688,299.367,491.349,296.031z"/>
				<path fill="#508CFF" d="M475.242,286.079c0,0-1.094,5.112,2.19,8.036l-6.208,8.762c0,0-1.825-6.937,0-9.86
					C473.051,290.096,475.242,286.079,475.242,286.079z"/>
				<path fill="#133A50" d="M415.414,561.758c0,0,0.334,3.087,5.279,4.479c4.945,1.396,8.31-2.69,8.31-2.69l1.095,10.082
					l-15.792,11.135h-13.118l7.098-7.877L415.414,561.758z"/>
				<path fill="#133A50" d="M362.768,547.788c0,0-2.324,4.324,1.962,7.156c4.286,2.833,8.736-0.034,8.736-0.034l-2.027,9.937
					l-37.295-11.666L362.768,547.788z"/>
				<g>
					<path fill="#FEC4AD" d="M507.426,299.273c-3.606,8.693-14.189,37.245-20.939,54.563c0,0-49.002,15.699-69.965,20.979
						l7.277,7.667c0,0,59.771-9.15,72.732-15.192c13.15-6.129,25.604-48.271,27.816-59.334
						C527.544,291.968,511.317,289.886,507.426,299.273z"/>
					<path fill="#FEC4AD" d="M421.636,376.017l-5.114-1.201c0,0-10.516-0.965-13.88-1.443c-3.368-0.482-7.395,3.364-11.994,4.808
						c-4.597,1.443-9.055,4.303-9.055,4.303h3.674l7.491,1.229l6.756-1.229c0,0,8.051-0.747,12.683,0c4.631,0.746,11.603,0,11.603,0
						L421.636,376.017z"/>
				</g>
			</g>
			<g>
				<path fill="#364469" d="M227.295,167.025l-13.294,30.828l3.408,1.47l13.303-30.844c0.153-0.352-0.013-0.759-0.366-0.909
					c-0.715-0.301-1.433-0.604-2.147-0.906C227.848,166.515,227.445,166.677,227.295,167.025z"/>
				<path fill="#364469" d="M227.384,174.56l-2.22-0.958l3.729-8.648c0.266-0.613,0.974-0.896,1.588-0.632l0,0
					c0.613,0.265,0.896,0.976,0.632,1.587L227.384,174.56z"/>
			</g>
			<g>
				<path fill="#FEC4AD" d="M262.241,240.218c0,0-13.07,35.902-17.825,35.731c-3.574-0.13-27.467-32.792-31.312-38.446
					c-3.845-5.652-11.309-18.939-11.309-18.939l9.726-3.024c0,0,16.735,20.155,21.029,23.773c4.297,3.618,6.107,4.976,6.107,4.976
					l4.977-13.595L262.241,240.218z"/>
				<path fill="#364469" d="M255.01,202.813c-5.263,1.4-7.079,6.084-9.341,15.751c-2.262,9.668-5.55,18.792-5.55,18.792
					l17.308,8.062c0,0,3.122-17.186,4.275-28.042C262.856,206.522,259.604,201.591,255.01,202.813z"/>
				<path fill="#133A50" d="M326.096,572.474v12.715h-24.435c0,0,0.919-4.603,12.505-6.726l1.706-5.989H326.096z"/>
				<path fill="#133A50" d="M274.459,572.474v12.715h-24.434c0,0,0.918-4.603,12.505-6.726l1.705-5.989H274.459z"/>
				<path fill="#133A50" d="M320.755,316.122c0,0,4.447,40.422,4.603,83.85c0.157,43.429,2.743,172.469,2.743,172.469h-17.537
					c0,0-18.084-124.697-24.657-152.615c-6.575-27.916-23.666-103.183-23.666-103.183L320.755,316.122z"/>
				<path fill="#FEC4AD" d="M293.794,169.311c0,0,1.135,8.841,2.066,13.339c0.929,4.498,1.708,6.868,2.394,8.243
					c1.521,3.045,10.848,12.32,10.848,12.32s-29.077,15.351-37.625,15.351s-5.553-17.147-5.553-17.147s9.322-7.366,10.709-11.089
					c1.389-3.722,2.165-14.502,2.165-14.502L293.794,169.311z"/>
				<path fill="#133A50" d="M282.619,360.479c0,0-3.288,66.172-3.944,79.201c-0.659,13.026,0,132.695,0,132.695
					s-16.435,0.444-16.435,0s-15.493-126.188-17.501-158.289c-2.007-32.105-0.833-70.163-3.496-74.604
					c-2.667-4.438,7.193-23.149,7.193-23.149l23.259,6.206L282.619,360.479z"/>
				<path fill="#E9F2F4" d="M303.18,194.57l29.894,12.896c0,0-5.911,24.196-6.238,33.813c-0.329,9.616-3.778,85.583-3.778,85.583
					s-9.179,14.216-53.336,8.556c-17.03-2.185-25.401-10.484-25.401-10.484s4.776-83.655,6.091-93.271
					c1.314-9.616,4.6-28.849,4.6-28.849l14.403-4.432l5.879,8.766L303.18,194.57z"/>
				<path fill="none" stroke="#AEBFDE" stroke-width="0.25" stroke-miterlimit="10" d="M267.576,320.587"/>
				<path fill="none" stroke="#AEBFDE" stroke-width="0.25" stroke-miterlimit="10" d="M275.292,207.147"/>
				<polygon fill="#364469" points="301.846,189.358 275.292,207.147 282.592,215.541 303.18,194.57 				"/>
				<polygon fill="#364469" points="275.292,207.147 268.047,212.963 269.413,198.381 272.125,194.57 				"/>
				<g>
					<path id="XMLID_60_" fill="#97A3CC" d="M247.305,259.288l-25.529,7.375c-2.622,0.743-5.666-0.606-6.811-3.009l-24.861-53.116
						c-1.133-2.383,0.04-4.923,2.634-5.678l25.305-7.475c4.607-0.452,6.909,0.447,8.079,2.891l24.917,52.713
						C252.22,255.454,251.77,257.182,247.305,259.288z"/>
					
						<linearGradient id="XMLID_2_" gradientUnits="userSpaceOnUse" x1="432.5713" y1="200.5308" x2="499.1764" y2="199.8297" gradientTransform="matrix(0.9233 -0.3199 0.4506 0.927 -314.4258 200.4731)">
						<stop  offset="0" style="stop-color:#EEF4FB"/>
						<stop  offset="0.3115" style="stop-color:#E3EDF8"/>
						<stop  offset="1" style="stop-color:#CFE1F3"/>
					</linearGradient>
					<path id="XMLID_55_" fill="url(#XMLID_2_)" d="M245.865,259.82l-25.653,7.424c-2.637,0.75-5.696-0.601-6.845-3.011
						l-24.957-53.354c-1.138-2.39,0.046-4.939,2.658-5.697l25.437-7.499c2.738-0.795,5.921,0.555,7.097,3.016l25.128,53.197
						C249.915,256.381,248.627,259.036,245.865,259.82z"/>
				</g>
				<g>
					<path fill="#FEC4AD" d="M319.957,245.532c0,0-23.736,39.396-26.903,40.752c-3.167,1.357-44.116-25.306-51.805-30.28
						c-7.689-4.976-14.125-9.866-15.085-10.658c-0.961-0.791-3.251-8.82-3.165-8.791c0.084,0.029,1.074-1.413,1.074-1.413
						l1.018,0.537l-0.538-3.194l0.964-1.81l0.932,0.312l0.311-3.223l1.413-2.431c0,0,4.032,4.561,6.522,7.273
						c2.487,2.715,5.426,4.75,5.426,4.75s-0.228-4.297,0-5.202c0.225-0.905-0.452-3.844-0.452-3.844l3.968,2.384
						c0,0,3.496,11.026,4.173,11.897s2.487,7.655,11.986,11.273c17.005,6.477,26.448,8.914,26.448,8.914
						c-0.673-0.096,15.482-29.44,15.482-29.44L319.957,245.532z"/>
					<path fill="#364469" d="M334.194,222.353c-2.26,10.729-17.969,34.147-17.969,34.147l-19.271-14.438
						c0,0,7.544-15.085,11.755-22.987c4.662-8.748,9.007-19.374,17.252-16.273C333.921,205.796,336.005,213.759,334.194,222.353z"/>
				</g>
				<path fill="#FEC4AD" d="M260.011,146.687c-2.053,1.862-5.464,5.604-5.191,7.792c0.273,2.187,0.731,8.662,1.82,12.284
					c1.09,3.621,3.208,13.121,4.757,17.289c1.55,4.168,3.339,9.891,4.621,10.429c1.283,0.538,12.535-1.445,14.652-3.001
					c2.118-1.556,13.345-13.893,10.955-23.015c0,0,2.945,0.383,4.752-8.638c0.471-2.354-9.091-9.04-10.581-11.372
					c-3.611-5.668-16.793-1.206-20.563-0.915C261.464,147.831,260.011,146.687,260.011,146.687z"/>
				<path fill="#7B2B1A" d="M254.819,154.479c0,0,0.739-3.195,3.662-2.513c2.924,0.683,8.76,0.29,13.041-0.907
					c4.28-1.198,8.109-3.739,8.109-3.739s1.164,5.684,2.647,6.982c1.486,1.298,2.434,3.949,2.978,5.759
					c0.546,1.81,2.859,2.337,2.859,2.337s1.057-5.077,3.333-5.433c4.511-0.708,3.964,5.379,2.11,7.362
					c-1.858,1.982-3.807,3.505-3.807,3.505s0.535,2.612,1.445,4.509c0.911,1.897,3.7,4.539,3.7,4.539s1.188-12.109,4.053-17.662
					c2.865-5.553,2.688-15.771-5.583-17.921c0,0-1.891-9.226-12.76-8.762c-10.867,0.464-19.551,4.806-24.343,4.345
					c-4.792-0.46-6.214-1.451-6.214-1.451s-2.394,7.86,0.723,12.028S254.819,154.479,254.819,154.479z"/>
			</g>
			<g>
				<g>
					<polygon fill="#A6AEBA" points="388.201,383.848 378.04,383.848 367.878,319.019 375.604,319.019 					"/>
					<polygon fill="#D2DCEB" points="385.285,383.848 345.626,383.848 335.467,319.019 375.123,319.019 					"/>
					<rect x="345.093" y="382.378" fill="#D2DCEB" width="43.108" height="4.835"/>
					<rect x="388.201" y="382.378" fill="#A6AEBA" width="54.354" height="4.835"/>
					<path fill="#A6AEBA" d="M363.504,354.586c1.148,4.961,0.34,10.323-1.805,11.974c-2.144,1.646-4.813-1.04-5.959-6.003
						c-1.148-4.961-0.341-10.323,1.804-11.973C359.689,346.936,362.355,349.622,363.504,354.586z"/>
				</g>
			</g>
			<g>
				<rect y="387.717" fill="#DBDBDB" width="488.146" height="9.381"/>
				<g>
					<polygon fill="#DBDBDB" points="52.092,584.225 56.8,584.225 95.186,397.098 85.463,397.098 					"/>
					<polygon fill="#DBDBDB" points="414.306,584.225 409.599,584.225 371.211,397.098 380.936,397.098 					"/>
				</g>
			</g>
		</g>
	</g>
</g>
</svg>
